# Blender v2.62 (sub 0) OBJ File: ''
# www.blender.org
v 0.000000 0.000000 1.000000
v -0.195090 0.000000 0.980785
v -0.382683 0.000000 0.923880
v -0.555570 0.000000 0.831470
v -0.707107 0.000000 0.707107
v -0.831470 0.000000 0.555570
v -0.923880 0.000000 0.382683
v -0.980785 0.000000 0.195090
v -1.000000 0.000000 0.000000
v -0.980785 0.000000 -0.195090
v -0.923880 0.000000 -0.382683
v -0.831470 0.000000 -0.555570
v -0.707107 0.000000 -0.707107
v -0.555570 0.000000 -0.831470
v -0.382683 0.000000 -0.923880
v -0.195090 0.000000 -0.980785
v 0.000000 0.000000 -1.000000
v 0.195091 0.000000 -0.980785
v 0.382684 0.000000 -0.923879
v 0.555571 0.000000 -0.831469
v 0.707107 0.000000 -0.707106
v 0.831470 0.000000 -0.555570
v 0.923880 0.000000 -0.382683
v 0.980785 0.000000 -0.195089
v 1.000000 0.000000 0.000001
v 0.980785 0.000000 0.195091
v 0.923879 0.000000 0.382684
v 0.831469 0.000000 0.555571
v 0.707106 0.000000 0.707108
v 0.555569 0.000000 0.831470
v 0.382682 0.000000 0.923880
v 0.195089 0.000000 0.980786
v -0.000002 2.000000 1.000000
v -0.195092 2.000000 0.980785
v -0.382685 2.000000 0.923879
v -0.555572 2.000000 0.831469
v -0.707108 2.000000 0.707105
v -0.831471 2.000000 0.555569
v -0.923880 2.000000 0.382682
v -0.980786 2.000000 0.195088
v -1.000000 2.000000 -0.000002
v -0.980785 2.000000 -0.195092
v -0.923879 2.000000 -0.382685
v -0.831469 2.000000 -0.555571
v -0.707106 2.000000 -0.707107
v -0.555570 2.000000 -0.831470
v -0.382684 2.000000 -0.923880
v -0.195091 2.000000 -0.980785
v -0.000001 2.000000 -1.000000
v 0.195089 2.000000 -0.980786
v 0.382682 2.000000 -0.923880
v 0.555568 2.000000 -0.831471
v 0.707105 2.000000 -0.707109
v 0.831468 2.000000 -0.555573
v 0.923878 2.000000 -0.382686
v 0.980785 2.000000 -0.195094
v 1.000000 2.000000 -0.000004
v 0.980786 2.000000 0.195086
v 0.923881 2.000000 0.382679
v 0.831473 2.000000 0.555566
v 0.707111 2.000000 0.707103
v 0.555575 2.000000 0.831466
v 0.382689 2.000000 0.923877
v 0.195097 2.000000 0.980784
v 0.000000 2.000000 0.000000
vt 0.500000 0.500000
vt 0.645846 0.980785
vt 0.549247 1.000000
vt 0.736840 0.943094
vt 0.818732 0.888374
vt 0.888376 0.818730
vt 0.943095 0.736838
vt 0.980785 0.645843
vt 1.000000 0.549245
vt 0.999999 0.450753
vt 0.980785 0.354155
vt 0.943094 0.263161
vt 0.888375 0.181269
vt 0.818732 0.111625
vt 0.736839 0.056906
vt 0.645845 0.019215
vt 0.549247 0.000000
vt 0.450755 0.000000
vt 0.354157 0.019214
vt 0.263162 0.056905
vt 0.181270 0.111623
vt 0.111626 0.181267
vt 0.056907 0.263160
vt 0.019215 0.354153
vt 0.000000 0.450752
vt 0.000000 0.549244
vt 0.019214 0.645842
vt 0.056905 0.736837
vt 0.111623 0.818729
vt 0.181266 0.888374
vt 0.263158 0.943093
vt 0.354152 0.980785
vt 0.450751 1.000000
vt 0.500001 1.500000
vt 0.597546 1.500000
vt 0.597545 0.500000
vt 0.691343 1.500000
vt 0.691342 0.500000
vt 0.777786 1.500000
vt 0.777785 0.500000
vt 0.853554 1.500000
vt 0.853553 0.500000
vt 0.853553 1.500000
vt 0.777784 1.500000
vt 0.691341 1.500000
vt 0.597544 1.500000
vt 0.499999 1.500000
vt 0.402454 1.500000
vt 0.402455 0.500000
vt 0.308658 1.500000
vt 0.308658 0.500000
vt 0.222214 1.500000
vt 0.222215 0.500000
vt 0.146446 1.500000
vt 0.146447 0.500000
vt 0.777785 1.500000
vt 0.691342 1.500000
vt 0.597545 1.500000
vt 0.500000 1.500000
vt 0.402455 1.500000
vt 0.308659 1.500000
vt 0.222216 1.500000
vt 0.146448 1.500000
vt 0.146446 0.500000
vt 0.308657 1.500000
vt 0.308659 0.500000
vt 0.402453 1.500000
vt 0.499998 1.500000
vt 0.597543 1.500000
vt 0.597546 0.500000
vt 0.691339 1.500000
vt 0.777783 1.500000
vt 0.777786 0.500000
vt 0.853551 1.500000
vt 0.853554 0.500000
vt 0.146445 1.500000
vt 0.222212 1.500000
vt 0.308655 1.500000
vt 0.402451 1.500000
vt 0.402456 0.500000
vt 0.500001 0.500000
vt 0.500000 -0.500000
vt 0.402456 -0.500000
vt 0.402451 0.500000
vn 0.000000 1.000000 0.000000
vn -0.098018 -0.000000 0.995185
vn -0.290285 0.000000 0.956940
vn -0.471398 0.000000 0.881921
vn -0.634394 0.000000 0.773010
vn -0.773011 0.000000 0.634392
vn -0.881922 0.000000 0.471396
vn -0.956941 0.000000 0.290284
vn -0.995185 -0.000000 0.098016
vn -0.995185 -0.000000 -0.098018
vn -0.956940 -0.000000 -0.290285
vn -0.881921 -0.000000 -0.471397
vn -0.773010 0.000000 -0.634394
vn -0.634393 -0.000000 -0.773011
vn -0.471397 -0.000000 -0.881921
vn -0.290285 -0.000000 -0.956940
vn -0.098017 -0.000000 -0.995185
vn 0.098017 -0.000000 -0.995185
vn 0.290284 -0.000000 -0.956941
vn 0.471396 -0.000000 -0.881921
vn 0.634393 -0.000000 -0.773011
vn 0.773010 -0.000000 -0.634394
vn 0.881921 -0.000000 -0.471398
vn 0.956940 -0.000000 -0.290286
vn 0.995185 -0.000000 -0.098019
vn 0.995185 -0.000000 0.098016
vn 0.956941 -0.000000 0.290283
vn 0.881922 -0.000000 0.471395
vn 0.773012 -0.000000 0.634391
vn 0.634395 -0.000000 0.773009
vn 0.471399 -0.000000 0.881920
vn 0.290287 -0.000000 0.956940
vn 0.098018 0.000000 0.995185
s off
f 65/1/1 34/2/1 33/3/1
f 65/1/1 35/4/1 34/2/1
f 65/1/1 36/5/1 35/4/1
f 65/1/1 37/6/1 36/5/1
f 65/1/1 38/7/1 37/6/1
f 65/1/1 39/8/1 38/7/1
f 65/1/1 40/9/1 39/8/1
f 65/1/1 41/10/1 40/9/1
f 65/1/1 42/11/1 41/10/1
f 65/1/1 43/12/1 42/11/1
f 65/1/1 44/13/1 43/12/1
f 65/1/1 45/14/1 44/13/1
f 65/1/1 46/15/1 45/14/1
f 65/1/1 47/16/1 46/15/1
f 65/1/1 48/17/1 47/16/1
f 65/1/1 49/18/1 48/17/1
f 65/1/1 50/19/1 49/18/1
f 65/1/1 51/20/1 50/19/1
f 65/1/1 52/21/1 51/20/1
f 65/1/1 53/22/1 52/21/1
f 65/1/1 54/23/1 53/22/1
f 65/1/1 55/24/1 54/23/1
f 65/1/1 56/25/1 55/24/1
f 65/1/1 57/26/1 56/25/1
f 65/1/1 58/27/1 57/26/1
f 65/1/1 59/28/1 58/27/1
f 65/1/1 60/29/1 59/28/1
f 65/1/1 61/30/1 60/29/1
f 65/1/1 62/31/1 61/30/1
f 65/1/1 63/32/1 62/31/1
f 65/1/1 64/33/1 63/32/1
f 65/1/1 33/3/1 64/33/1
f 1/1/2 33/34/2 34/35/2
f 1/1/2 34/35/2 2/36/2
f 2/36/3 34/35/3 35/37/3
f 2/36/3 35/37/3 3/38/3
f 3/38/4 35/37/4 36/39/4
f 3/38/4 36/39/4 4/40/4
f 4/40/5 36/39/5 37/41/5
f 4/40/5 37/41/5 5/42/5
f 5/42/6 37/43/6 38/44/6
f 5/42/6 38/44/6 6/40/6
f 6/40/7 38/44/7 39/45/7
f 6/40/7 39/45/7 7/38/7
f 7/38/8 39/45/8 40/46/8
f 7/38/8 40/46/8 8/36/8
f 8/36/9 40/46/9 41/47/9
f 8/36/9 41/47/9 9/1/9
f 9/1/10 41/47/10 42/48/10
f 9/1/10 42/48/10 10/49/10
f 10/49/11 42/48/11 43/50/11
f 10/49/11 43/50/11 11/51/11
f 11/51/12 43/50/12 44/52/12
f 11/51/12 44/52/12 12/53/12
f 12/53/13 44/52/13 45/54/13
f 12/53/13 45/54/13 13/55/13
f 13/42/14 45/43/14 46/56/14
f 13/42/14 46/56/14 14/40/14
f 14/40/15 46/56/15 47/57/15
f 14/40/15 47/57/15 15/38/15
f 15/38/16 47/57/16 48/58/16
f 15/38/16 48/58/16 16/36/16
f 16/36/17 48/58/17 49/59/17
f 16/36/17 49/59/17 17/1/17
f 17/1/18 49/59/18 50/60/18
f 17/1/18 50/60/18 18/49/18
f 18/49/19 50/60/19 51/61/19
f 18/49/19 51/61/19 19/51/19
f 19/51/20 51/61/20 52/62/20
f 19/51/20 52/62/20 20/53/20
f 20/53/21 52/62/21 53/63/21
f 20/53/21 53/63/21 21/64/21
f 21/55/22 53/54/22 54/52/22
f 21/55/22 54/52/22 22/53/22
f 22/53/23 54/52/23 55/65/23
f 22/53/23 55/65/23 23/66/23
f 23/66/24 55/65/24 56/67/24
f 23/66/24 56/67/24 24/49/24
f 24/49/25 56/67/25 57/68/25
f 24/49/25 57/68/25 25/1/25
f 25/1/26 57/68/26 58/69/26
f 25/1/26 58/69/26 26/70/26
f 26/70/27 58/69/27 59/71/27
f 26/70/27 59/71/27 27/38/27
f 27/38/28 59/71/28 60/72/28
f 27/38/28 60/72/28 28/73/28
f 28/73/29 60/72/29 61/74/29
f 28/73/29 61/74/29 29/75/29
f 29/55/30 61/76/30 62/77/30
f 29/55/30 62/77/30 30/53/30
f 30/53/31 62/77/31 63/78/31
f 30/53/31 63/78/31 31/66/31
f 31/66/32 63/78/32 64/79/32
f 31/66/32 64/79/32 32/80/32
f 33/81/33 1/82/33 32/83/33
f 33/81/33 32/83/33 64/84/33
