# Blender v2.62 (sub 0) OBJ File: ''
# www.blender.org
v -0.276385 0.447215 -0.850640
v 0.723600 0.447215 -0.525720
v 0.723600 0.447215 0.525720
v -0.276385 0.447215 0.850640
v -0.894425 0.447215 0.000000
v 0.000000 1.000000 0.000000
v -0.951058 0.000000 0.309013
v -0.951058 0.000000 -0.309013
v -0.587786 0.000000 -0.809017
v 0.000000 0.000000 -1.000000
v 0.587786 0.000000 -0.809017
v 0.951058 0.000000 -0.309013
v 0.951058 0.000000 0.309013
v 0.587786 0.000000 0.809017
v 0.000000 0.000000 1.000000
v -0.587786 0.000000 0.809017
v -0.688189 0.525736 -0.499997
v 0.262869 0.525738 -0.809012
v 0.850648 0.525736 0.000000
v 0.262869 0.525738 0.809012
v -0.688189 0.525736 0.499997
v -0.525730 0.850652 0.000000
v -0.162456 0.850654 -0.499995
v 0.425323 0.850654 -0.309011
v 0.425323 0.850654 0.309011
v -0.162456 0.850654 0.499995
vt 0.500000 0.173716
vt 0.345335 0.000000
vt 0.654664 0.000000
vt 0.213009 0.382229
vt 0.000000 0.475643
vt 0.095590 0.181450
vt 0.322631 0.719607
vt 0.345651 0.951058
vt 0.095393 0.769235
vt 0.677369 0.719607
vt 0.904607 0.769235
vt 0.654349 0.951058
vt 0.786991 0.382229
vt 0.904410 0.181450
vt 1.000000 0.475643
vt 0.339640 0.254759
vt 0.240532 0.559785
vt 0.500000 0.748299
vt 0.759468 0.559785
vt 0.660360 0.254759
vt 0.368875 0.432873
vt 0.500000 0.337603
vt 0.500000 0.475477
vt 0.418961 0.587019
vt 0.581039 0.587019
vt 0.631125 0.432873
vn -0.992077 0.125631 0.000000
vn -0.306568 0.125651 -0.943519
vn 0.802607 0.125648 -0.583125
vn 0.802607 0.125648 0.583125
vn -0.306568 0.125651 0.943519
vn -0.574584 0.330397 -0.748793
vn -0.794656 0.187595 -0.577348
vn -0.889698 0.330386 -0.315092
vn 0.534590 0.330395 -0.777851
vn 0.303531 0.187597 -0.934171
vn 0.024726 0.330395 -0.943519
vn 0.904981 0.330393 0.268049
vn 0.982246 0.187599 -0.000000
vn 0.904981 0.330393 -0.268049
vn 0.024726 0.330395 0.943519
vn 0.303531 0.187597 0.934171
vn 0.534590 0.330395 0.777851
vn -0.889698 0.330386 0.315092
vn -0.794656 0.187595 0.577348
vn -0.574584 0.330397 0.748793
vn -0.408939 0.661686 -0.628443
vn -0.491119 0.794658 -0.356821
vn -0.268034 0.943523 -0.194737
vn -0.724044 0.661694 -0.194734
vn 0.471317 0.661687 -0.583121
vn 0.187594 0.794658 -0.577345
vn 0.102381 0.943523 -0.315090
vn -0.038547 0.661687 -0.748789
vn 0.700228 0.661687 0.268049
vn 0.607060 0.794656 0.000000
vn 0.331305 0.943524 -0.000000
vn 0.700228 0.661687 -0.268049
vn -0.038547 0.661687 0.748789
vn 0.187594 0.794658 0.577345
vn 0.102381 0.943523 0.315090
vn 0.471318 0.661687 0.583121
vn -0.724044 0.661694 0.194734
vn -0.491119 0.794658 0.356821
vn -0.268034 0.943523 0.194737
vn -0.408939 0.661686 0.628443
s off
f 5/1/1 8/2/1 7/3/1
f 1/4/2 10/5/2 9/6/2
f 2/7/3 12/8/3 11/9/3
f 3/10/4 14/11/4 13/12/4
f 4/13/5 16/14/5 15/15/5
f 17/16/6 1/4/6 9/6/6
f 9/6/7 8/2/7 17/16/7
f 5/1/8 17/16/8 8/2/8
f 18/17/9 2/7/9 11/9/9
f 11/9/10 10/5/10 18/17/10
f 1/4/11 18/17/11 10/5/11
f 19/18/12 3/10/12 13/12/12
f 13/12/13 12/8/13 19/18/13
f 2/7/14 19/18/14 12/8/14
f 20/19/15 4/13/15 15/15/15
f 15/15/16 14/11/16 20/19/16
f 3/10/17 20/19/17 14/11/17
f 21/20/18 5/1/18 7/3/18
f 7/3/19 16/14/19 21/20/19
f 4/13/20 21/20/20 16/14/20
f 23/21/21 1/4/21 17/16/21
f 17/16/22 22/22/22 23/21/22
f 6/23/23 23/21/23 22/22/23
f 22/22/24 17/16/24 5/1/24
f 24/24/25 2/7/25 18/17/25
f 18/17/26 23/21/26 24/24/26
f 6/23/27 24/24/27 23/21/27
f 18/17/28 1/4/28 23/21/28
f 25/25/29 3/10/29 19/18/29
f 19/18/30 24/24/30 25/25/30
f 6/23/31 25/25/31 24/24/31
f 24/24/32 19/18/32 2/7/32
f 26/26/33 4/13/33 20/19/33
f 20/19/34 25/25/34 26/26/34
f 6/23/35 26/26/35 25/25/35
f 25/25/36 20/19/36 3/10/36
f 22/22/37 5/1/37 21/20/37
f 21/20/38 26/26/38 22/22/38
f 6/23/39 22/22/39 26/26/39
f 26/26/40 21/20/40 4/13/40
