# Blender v2.62 (sub 0) OBJ File: 'residential_building.blend'
# www.blender.org
v -1.000000 0.000000 1.000000
v -1.000000 0.000000 -1.000000
v 1.000000 0.000000 -1.000000
v 1.000000 0.000000 1.000000
v -1.000000 1.900000 0.999999
v -0.999999 1.900000 -1.000001
v 1.000000 1.900000 -1.000000
v 1.000000 1.900000 1.000000
v -1.055118 1.897244 1.055117
v -1.055117 1.897244 -1.055118
v 1.055117 1.897244 1.055118
v 1.055118 1.897244 -1.055117
v 1.055117 2.002756 1.055118
v 1.055118 2.002756 -1.055117
v -1.055117 2.002756 -1.055118
v -1.055118 2.002756 1.055117
vt 1.000000 0.000000
vt 1.000000 0.950000
vt 0.000000 0.950000
vt 0.000000 0.000001
vt 0.000000 0.000000
vt 0.453550 0.459409
vt 0.453550 0.431216
vt 0.425357 0.431216
vt 0.425357 0.459409
vt 0.501685 0.427277
vt 0.499055 0.459867
vt 0.750046 0.459867
vt 0.752675 0.427277
vt 0.498960 0.427210
vt 0.500770 0.459544
vt 0.253366 0.459543
vt 0.251555 0.427210
vt 0.749732 0.427891
vt 0.747102 0.460480
vt 0.998093 0.460480
vt 1.000722 0.427891
vt 0.250679 0.459831
vt 0.253263 0.427802
vt 0.006593 0.427802
vt 0.004009 0.459831
vt 0.437497 0.457615
vt 0.437497 0.431838
vt 0.411721 0.431838
vt 0.411721 0.457615
vt 1.000000 1.000000
vt 0.000000 1.000000
vn -1.000000 0.000000 -0.000000
vn 0.000000 -0.000000 -1.000000
vn 1.000000 -0.000000 0.000000
vn -0.000000 0.000000 1.000000
vn -0.000000 -1.000000 0.000000
vn -1.000000 0.000000 -0.000001
vn 0.000000 1.000000 -0.000000
s off
f 1/1/1 5/2/1 6/3/1
f 1/1/1 6/3/1 2/4/1
f 2/1/2 6/2/2 7/3/2
f 2/1/2 7/3/2 3/5/2
f 3/1/3 7/2/3 8/3/3
f 3/1/3 8/3/3 4/5/3
f 5/3/4 1/5/4 4/1/4
f 5/3/4 4/1/4 8/2/4
f 9/6/5 10/7/5 12/8/5
f 9/6/5 12/8/5 11/9/5
f 12/10/3 14/11/3 13/12/3
f 12/10/3 13/12/3 11/13/3
f 10/14/2 15/15/2 14/16/2
f 10/14/2 14/16/2 12/17/2
f 11/18/4 13/19/4 16/20/4
f 11/18/4 16/20/4 9/21/4
f 9/22/6 16/23/6 15/24/6
f 9/22/6 15/24/6 10/25/6
f 16/26/7 13/27/7 14/28/7
f 16/26/7 14/28/7 15/29/7
f 5/5/7 8/1/7 7/30/7
f 5/5/7 7/30/7 6/31/7
